<svg xmlns="http://www.w3.org/2000/svg" viewBox="0 0 50 50" width="100" height="100"><path fill="none" stroke="#000" stroke-linecap="round" stroke-linejoin="round" stroke-miterlimit="10" stroke-width="2" d="M9 45h32a4 4 0 004-4V9a4 4 0 00-4-4H9a4 4 0 00-4 4v32a4 4 0 004 4z"/><path fill="none" stroke="#000" stroke-linecap="round" stroke-linejoin="round" stroke-miterlimit="10" stroke-width="2" d="M35.974 28.115c2.237 2.083 2.701 3.096 2.777 3.222.927 1.542-1.028 1.663-1.028 1.663l-3.735-.015s-.804.158-1.86-.569c-1.397-.96-2.713-3.457-3.74-3.134-.862.27-1.119 1.13-1.119 2.175 0 .375-.262.542-.955.542h-1.672c-2.256 0-4.42.053-6.863-2.623-3.455-3.785-6.704-10.529-6.704-10.529s-.179-.384.016-.617c.221-.262.821-.229.821-.229L15.908 18s.376.075.646.274c.223.163.347.476.347.476s.679 1.324 1.534 2.806c1.67 2.893 2.446 3.527 3.013 3.216.827-.451.579-4.088.579-4.088s.016-1.321-.416-1.908c-.333-.456-.962-.589-1.24-.626-.225-.03.143-.553.622-.789.719-.353 1.989-.372 3.49-.357 1.168.012 1.201.136 1.657.246 1.378.333.91 1.622.91 4.712 0 .99-.178 2.382.534 2.843.307.199 1.36-.022 3.232-3.21.889-1.512 1.567-3.021 1.567-3.021s.146-.276.372-.412c.232-.139.224-.136.543-.136S36.804 18 37.504 18c.699 0 1.354-.008 1.468.421.162.617-.487 1.734-2.204 4.03-2.823 3.77-3.136 3.485-.794 5.664z"/></svg>